<svg width="120" height="35" viewBox="0 0 120 35" fill="none" xmlns="http://www.w3.org/2000/svg">
    <path d="M48.154 12.56c-3.553 0-6.446-2.808-6.446-6.259 0-3.45 2.893-6.26 6.446-6.26a6.525 6.525 0 0 1 5.525 3.04.948.948 0 1 1-1.61.998 4.617 4.617 0 0 0-3.915-2.137c-2.508 0-4.549 1.956-4.549 4.363 0 2.407 2.041 4.363 4.55 4.363a4.618 4.618 0 0 0 3.913-2.137.95.95 0 0 1 1.305-.306.948.948 0 0 1 .306 1.305 6.525 6.525 0 0 1-5.525 3.03zM72.904 12.56h-.369a.95.95 0 0 1 0-1.896h.37c2.51 0 4.549-1.958 4.549-4.363 0-2.404-2.032-4.362-4.55-4.362h-2.103v4.529a.947.947 0 1 1-1.895 0V.99a.95.95 0 0 1 .947-.95h3.051c3.556 0 6.446 2.808 6.446 6.26s-2.89 6.26-6.446 6.26zM59.859 12.422a.911.911 0 0 1-.209-.024 6.516 6.516 0 0 1-.873-.262 6.226 6.226 0 0 1-4.112-5.835c0-3.452 2.893-6.26 6.446-6.26 3.554 0 6.444 2.808 6.444 6.26a6.228 6.228 0 0 1-4.11 5.83c-.276.104-.56.19-.849.256a.948.948 0 0 1-.423-1.847 4.62 4.62 0 0 0 .602-.184 4.345 4.345 0 0 0 2.884-4.064c0-2.401-2.032-4.362-4.548-4.362-2.515 0-4.549 1.955-4.549 4.362a4.346 4.346 0 0 0 2.885 4.064c.202.075.408.137.619.184a.947.947 0 0 1-.207 1.873v.01z" fill="#FFFDFD"/>
    <path d="M69.853 12.56a.95.95 0 0 1-.947-.949V8.96a.947.947 0 1 1 1.895 0v2.652a.947.947 0 0 1-.948.95zM87.677 12.422h-6.32a.95.95 0 0 1-.948-.949V.991a.95.95 0 0 1 .947-.95h6.32a.95.95 0 1 1 0 1.898h-5.37v8.586h5.37a.949.949 0 1 1 0 1.897z" fill="#FFFDFD"/>
    <path d="M86.552 7.408H84.13a.95.95 0 0 1 0-1.897h2.422a.95.95 0 0 1 0 1.897zM98.788 12.422h-8.204a.95.95 0 0 1-.739-1.533l7.006-8.95h-6.095a.95.95 0 1 1 0-1.897h8.036a.95.95 0 0 1 .748 1.533l-7.011 8.95h6.258a.948.948 0 1 1 0 1.897h.001zM101.66 12.422a.95.95 0 0 1-.873-1.313L105.151.626a.955.955 0 0 1 .876-.584.953.953 0 0 1 .875.584l4.365 10.483a.95.95 0 0 1-1.751.73l-3.489-8.39-3.491 8.382a.948.948 0 0 1-.876.591z" fill="#FFFDFD"/>
    <path d="M107.033 10.005h-2.031a.945.945 0 0 1-.948-.948.947.947 0 0 1 .948-.947h2.031a.945.945 0 0 1 .948.947.947.947 0 0 1-.948.948zM113.287 12.422a.95.95 0 0 1-.947-.949V.991a.945.945 0 0 1 .575-.915.95.95 0 0 1 1.322.915v10.482a.95.95 0 0 1-.95.95zM119.092 12.594h-3.245a.95.95 0 1 1 0-1.897h3.245a.95.95 0 0 1 0 1.897zM69.857 29.238a.947.947 0 0 1-.948-.948v-4.774a.947.947 0 1 1 1.895 0v4.774a.947.947 0 0 1-.947.948zM66.117 34.193a4.68 4.68 0 0 1-.784-.066.948.948 0 0 1 .309-1.864 2.808 2.808 0 0 0 2.854-1.302.948.948 0 0 1 1.62.986 4.704 4.704 0 0 1-4 2.246zM116.66 30.034H92.728a.95.95 0 0 1 0-1.897h23.932a.576.576 0 0 0 .242-1.097l-10.77-2.204a3.017 3.017 0 0 1-2.445-3.034 3.015 3.015 0 0 1 2.582-2.919.738.738 0 0 1 .144-.01l12.209-.091a.949.949 0 0 1 0 1.895l-12.126.092a1.125 1.125 0 0 0 .013 2.205l10.842 2.217c.047.01.094.021.14.037a2.469 2.469 0 0 1 1.615 2.746 2.473 2.473 0 0 1-2.433 2.056l-.013.004z" fill="#FFFDFD"/>
    <path d="M92.444 30.047a5.587 5.587 0 1 1 5.587-5.588v1.38a.948.948 0 0 1-1.895 0v-1.38a3.694 3.694 0 1 0-3.694 3.694.948.948 0 0 1 0 1.895l.002-.001zM61.104 31.546a.95.95 0 0 1-.95-.95V19.815a.947.947 0 0 1 .949-.991.949.949 0 0 1 .948.991v10.787a.949.949 0 0 1-.947.945zM53.273 28.53a.947.947 0 0 1-.948-.947v-7.769a.949.949 0 1 1 1.897 0v7.769a.95.95 0 0 1-.95.947zM69.857 21.205a1.162 1.162 0 1 0 0-2.324 1.162 1.162 0 0 0 0 2.324zM96.871 34.11a.947.947 0 0 1-.947-.95v-3.232a.948.948 0 0 1 1.895 0v3.225a.95.95 0 0 1-.948.957zM48.32 33.914c-3.553 0-6.444-2.81-6.444-6.26a6.145 6.145 0 0 1 1.59-4.114.947.947 0 1 1 1.41 1.267 4.26 4.26 0 0 0-1.108 2.848c0 2.4 2.032 4.362 4.547 4.362a4.618 4.618 0 0 0 3.914-2.137.949.949 0 0 1 1.612.998 6.527 6.527 0 0 1-5.52 3.036zM79.578 30.047h-2.99a.947.947 0 1 1 0-1.896h2.99a3.484 3.484 0 0 0 3.477-3.48v-.212a3.694 3.694 0 0 0-3.694-3.694.95.95 0 0 1 0-1.897 5.593 5.593 0 0 1 5.595 5.584v.212a5.382 5.382 0 0 1-5.378 5.383z" fill="#FFFDFD"/>
    <path d="M27.571 14.173v.902l-.923-.497-1.214-.647-2.693-1.431-.184-.1c-2.835-1.535-5.964-3.273-6.406-3.675A6.686 6.686 0 0 1 14.786 7a.185.185 0 0 0-.033-.06 15.803 15.803 0 0 0-1.573-2.125c-1.218-1.38-2.533-2.256-3.907-2.597a5.304 5.304 0 0 0-1.276-.167H7.95c-.88 0-1.749.208-2.533.608H5.41a.95.95 0 0 1-1.108-1.537.652.652 0 0 1 .124-.08 4.69 4.69 0 0 1 .581-.289A7.636 7.636 0 0 1 7.973.145c2.063 0 4.012.85 5.79 2.525a16.673 16.673 0 0 1 2.67 3.365c.049.152.132.29.243.405l.011.015c.449.652 1.568 1.396 1.99 1.679l.07.046v.016l7.718 4.132a2.08 2.08 0 0 1 1.106 1.845z" fill="#8D68EA"/>
    <path d="M26.622 28.227c-3.735 0-5.945-.013-6.082-.016a6.635 6.635 0 0 1-6.243-6.65c.018-3.642 3.053-6.604 6.765-6.604h6.504a2.09 2.09 0 0 1-2.084 1.898h-4.456c-2.586 0-4.76 2.061-4.832 4.597a4.74 4.74 0 0 0 4.736 4.88h5.692a.948.948 0 0 1 .002 1.895h-.002zM32.53 28.23a.95.95 0 1 1 0-1.898h4.016a.95.95 0 1 1 0 1.899h-4.015z" fill="#8D68EA"/>
    <path d="M25.337 22.542a.95.95 0 0 1 0-1.897h4.024a.95.95 0 0 1 .376 1.837.949.949 0 0 1-.376.06h-4.024zM29.385 33.925a.949.949 0 0 1 0-1.897H33.4a.947.947 0 0 1 .992.949.949.949 0 0 1-.992.948h-4.015zM20.93 33.925A13.483 13.483 0 0 1 7.467 20.462c0-1.847.452-3.677 1.381-5.594l.03-.061c.709-1.467 1.444-2.985 1.125-4.666-.444-2.32-2.422-4.004-4.705-4.004a4.823 4.823 0 0 0-3.642 1.662.91.91 0 0 1-.7.316.951.951 0 0 1-.724-1.574 6.72 6.72 0 0 1 5.066-2.305c.185 0 .359 0 .538.02a6.77 6.77 0 0 1 5.072 2.99c1.378 2.075 1.427 4.635.14 7.212v.01a11.568 11.568 0 0 0 9.887 17.557h2.566a.95.95 0 0 1 0 1.897l-2.572.003z" fill="#8D68EA"/>
</svg>
